HIERARCHY
ROOT joint_0
{
	OFFSET 0.000000 0.000000 0.000000
	CHANNELS 6 Xposition Yposition Zposition Zrotation Yrotation Xrotation 
	JOINT joint_1
	{
		OFFSET 11.612000 -0.419000 106.198000
		CHANNELS 3 Zrotation Yrotation Xrotation
		JOINT joint_2
		{
			OFFSET -1.708000 -1.022000 97.564090
			CHANNELS 3 Zrotation Yrotation Xrotation
			JOINT joint_3
			{
				OFFSET -4.121000 -1.538000 97.375000
				CHANNELS 3 Zrotation Yrotation Xrotation
				JOINT joint_4
				{
					OFFSET 5.442000 -2.123000 132.795900
					CHANNELS 3 Zrotation Yrotation Xrotation
					JOINT joint_5
					{
						OFFSET 21.935000 0.195000 82.975100
						CHANNELS 3 Zrotation Yrotation Xrotation
						End Site
						{
							OFFSET 0.000000 0.000000 0.000000
						}
					}
				}
				JOINT joint_6
				{
					OFFSET 4.262000 -30.048000 73.899900
					CHANNELS 3 Zrotation Yrotation Xrotation
					JOINT joint_7
					{
						OFFSET 9.731000 -136.810010 -21.963010
						CHANNELS 3 Zrotation Yrotation Xrotation
						JOINT joint_8
						{
							OFFSET 33.360000 -35.709000 -267.597900
							CHANNELS 3 Zrotation Yrotation Xrotation
							JOINT joint_9
							{
								OFFSET 36.156000 -29.759000 -240.558040
								CHANNELS 3 Zrotation Yrotation Xrotation
								End Site
								{
									OFFSET 0.000000 0.000000 0.000000
								}
							}
						}
					}
				}
				JOINT joint_10
				{
					OFFSET 2.027000 27.734000 74.914920
					CHANNELS 3 Zrotation Yrotation Xrotation
					JOINT joint_11
					{
						OFFSET -5.183000 136.784000 -23.604980
						CHANNELS 3 Zrotation Yrotation Xrotation
						JOINT joint_12
						{
							OFFSET 29.806000 37.229000 -267.809940
							CHANNELS 3 Zrotation Yrotation Xrotation
							JOINT joint_13
							{
								OFFSET 36.890000 46.524990 -237.772030
								CHANNELS 3 Zrotation Yrotation Xrotation
								End Site
								{
									OFFSET 0.000000 0.000000 0.000000
								}
							}
						}
					}
				}
			}
		}
	}
	JOINT joint_14
	{
		OFFSET -7.290000 -102.873990 -124.314940
		CHANNELS 3 Zrotation Yrotation Xrotation
		JOINT joint_15
		{
			OFFSET -15.466000 -19.909010 -438.533020
			CHANNELS 3 Zrotation Yrotation Xrotation
			JOINT joint_16
			{
				OFFSET -26.899000 -18.922000 -464.797000
				CHANNELS 3 Zrotation Yrotation Xrotation
				JOINT joint_17
				{
					OFFSET 179.329000 -12.011000 -84.174000
					CHANNELS 3 Zrotation Yrotation Xrotation
					End Site
					{
						OFFSET 0.000000 0.000000 0.000000
					}
				}
			}
		}
	}
	JOINT joint_18
	{
		OFFSET -6.225000 101.546000 -125.479980
		CHANNELS 3 Zrotation Yrotation Xrotation
		JOINT joint_19
		{
			OFFSET -13.973000 7.996000 -438.963010
			CHANNELS 3 Zrotation Yrotation Xrotation
			JOINT joint_20
			{
				OFFSET -44.294000 5.716000 -463.813970
				CHANNELS 3 Zrotation Yrotation Xrotation
				JOINT joint_21
				{
					OFFSET 178.505000 -4.689000 -85.139000
					CHANNELS 3 Zrotation Yrotation Xrotation
					End Site
					{
						OFFSET 0.000000 0.000000 0.000000
					}
				}
			}
		}
	}
}
MOTION
Frames: 13
Frame Time: 0.016667
46.448000 -27.490000 1153.180050 2.579370 0.850372 0.880081 -0.829609 6.176353 -1.150942 -0.904509 -1.257219 0.233142 -0.888454 1.214336 -0.182123 -0.055611 5.194710 0.142885 0.000000 0.000000 0.000000 -1.046164 -1.477983 1.122631 0.310213 -1.748427 0.402837 0.816143 -4.029085 2.115366 0.000000 0.000000 0.000000 -1.274148 -1.076180 0.036356 -0.424500 -0.961311 -0.747307 -0.714635 -2.514682 -1.475104 0.000000 0.000000 0.000000 -0.251908 -0.391824 -2.047699 -0.948240 12.286611 1.896393 -0.296395 1.527783 -0.031831 0.000000 0.000000 0.000000 1.245569 -0.117438 -0.766153 1.376823 9.065031 0.558017 1.438209 3.779402 0.771620 0.000000 0.000000 0.000000 
49.816000 -26.755000 1153.469970 2.701354 0.699277 0.994345 -0.839558 6.450281 -1.423213 -0.943281 -1.294887 0.284419 -0.932894 1.247357 -0.195608 -0.087507 5.261822 0.260902 0.000000 0.000000 0.000000 -1.107910 -1.492649 1.137134 0.324192 -1.768015 0.521562 0.774910 -3.939737 1.915725 0.000000 0.000000 0.000000 -1.288461 -1.232426 0.213274 -0.484424 -1.133700 -0.783239 -0.825713 -2.895802 -1.727814 0.000000 0.000000 0.000000 -0.266358 -1.620773 -2.505583 -1.163407 15.177229 2.383656 -0.305890 1.266095 -0.052311 0.000000 0.000000 0.000000 1.148498 -0.162396 -0.827259 1.295983 9.722144 0.441087 1.367437 3.955626 0.742058 0.000000 0.000000 0.000000 
53.069000 -26.142000 1153.661010 2.755243 0.538236 1.072610 -0.818197 6.787539 -1.647697 -0.974571 -1.337268 0.319958 -0.971413 1.288435 -0.216842 -0.117245 5.288122 0.371993 0.000000 0.000000 0.000000 -1.161429 -1.531389 1.136513 0.348199 -1.806004 0.710583 0.715530 -3.807095 1.630195 0.000000 0.000000 0.000000 -1.333292 -1.404527 0.390049 -0.538007 -1.314831 -0.802494 -0.915355 -3.202502 -1.936939 0.000000 0.000000 0.000000 -0.259541 -3.107551 -2.974760 -1.368304 18.444096 2.945495 -0.283390 1.203729 -0.044589 0.000000 0.000000 0.000000 1.059510 -0.191589 -0.837027 1.225337 10.384298 0.307933 1.308392 4.069271 0.716113 0.000000 0.000000 0.000000 
56.098000 -25.590000 1153.738040 2.674733 0.353482 1.096952 -0.732878 7.230708 -1.809570 -0.986534 -1.384189 0.343990 -0.994246 1.342937 -0.250717 -0.141075 5.234619 0.462874 0.000000 0.000000 0.000000 -1.196486 -1.611605 1.105875 0.388199 -1.875317 1.009742 0.631204 -3.628651 1.215825 0.000000 0.000000 0.000000 -1.422135 -1.599679 0.563064 -0.585905 -1.509050 -0.791325 -0.988234 -3.430746 -2.138915 0.000000 0.000000 0.000000 -0.201471 -4.985041 -3.470178 -1.531524 22.345678 3.623115 -0.194353 1.640733 0.026908 0.000000 0.000000 0.000000 0.988704 -0.186713 -0.780123 1.174975 11.060006 0.154637 1.271826 4.077590 0.697370 0.000000 0.000000 0.000000 
59.011000 -25.160000 1153.715940 2.539418 0.147481 1.143202 -0.606151 7.759344 -2.039316 -1.005157 -1.444035 0.414011 -1.030668 1.402227 -0.292573 -0.162232 5.137857 0.544890 0.000000 0.000000 0.000000 -1.223179 -1.715615 1.059575 0.438378 -1.962752 1.379611 0.528632 -3.407550 0.714836 0.000000 0.000000 0.000000 -1.538532 -1.808677 0.744861 -0.628909 -1.711351 -0.770787 -1.040019 -3.586747 -2.296053 0.000000 0.000000 0.000000 -0.153093 -7.093448 -4.029048 -1.666173 26.547068 4.327570 -0.082284 2.522525 0.138811 0.000000 0.000000 0.000000 0.922737 -0.149729 -0.743676 1.128194 11.728558 -0.003039 1.245548 4.058267 0.682228 0.000000 0.000000 0.000000 
62.074000 -25.042000 1153.568970 2.507789 -0.035857 1.235756 -0.509422 8.261011 -2.322806 -1.069112 -1.512824 0.508143 -1.115336 1.455365 -0.327276 -0.182214 5.056842 0.622735 0.000000 0.000000 0.000000 -1.248288 -1.805215 1.058450 0.478626 -2.043654 1.656532 0.444119 -3.201578 0.321288 0.000000 0.000000 0.000000 -1.640082 -2.006532 0.894889 -0.658268 -1.899069 -0.689692 -1.071346 -3.675365 -2.403214 0.000000 0.000000 0.000000 -0.216582 -9.040213 -4.556184 -1.825845 30.183882 4.895430 -0.055792 3.129363 0.195172 0.000000 0.000000 0.000000 0.863290 -0.095404 -0.774949 1.081873 12.309412 -0.106600 1.230806 4.058847 0.672946 0.000000 0.000000 0.000000 
65.267000 -25.304000 1153.154050 2.623812 -0.156303 1.350264 -0.463984 8.655799 -2.589447 -1.193181 -1.568475 0.574477 -1.260295 1.501061 -0.351586 -0.203277 5.009195 0.705245 0.000000 0.000000 0.000000 -1.271548 -1.880817 1.142982 0.502843 -2.125135 1.770102 0.389521 -3.015591 0.109993 0.000000 0.000000 0.000000 -1.721474 -2.189134 1.004294 -0.669960 -2.066375 -0.506690 -1.087924 -3.710820 -2.479595 0.000000 0.000000 0.000000 -0.447080 -10.882072 -4.996876 -2.080951 33.420097 5.338822 -0.190216 2.891852 0.126931 0.000000 0.000000 0.000000 0.828947 -0.070001 -0.859124 1.056980 12.802456 -0.132290 1.254141 4.024720 0.680296 0.000000 0.000000 0.000000 
68.611000 -25.878000 1152.614990 2.814593 -0.234730 1.471616 -0.449144 8.985215 -2.835225 -1.345736 -1.616769 0.627283 -1.433623 1.544131 -0.370847 -0.223662 4.977319 0.785472 0.000000 0.000000 0.000000 -1.291447 -1.942290 1.274713 0.516829 -2.200102 1.789878 0.352908 -2.844082 0.006437 0.000000 0.000000 0.000000 -1.787946 -2.361002 1.079667 -0.667906 -2.219276 -0.260831 -1.084221 -3.677117 -2.506860 0.000000 0.000000 0.000000 -0.752780 -12.627680 -5.366241 -2.351967 36.216445 5.682278 -0.406374 2.127654 -0.009835 0.000000 0.000000 0.000000 0.809421 -0.048751 -0.962707 1.043976 13.218164 -0.109572 1.298523 3.978717 0.696919 0.000000 0.000000 0.000000 
72.429000 -26.750000 1152.349980 3.011643 -0.284654 1.565392 -0.475577 9.253096 -3.007820 -1.465038 -1.667437 0.670010 -1.565525 1.583597 -0.381136 -0.237222 4.967844 0.838735 0.000000 0.000000 0.000000 -1.315769 -1.951737 1.395525 0.518330 -2.224058 1.763250 0.334425 -2.726932 -0.020943 0.000000 0.000000 0.000000 -1.816624 -2.510090 1.095447 -0.654251 -2.351633 -0.015991 -1.044922 -3.535378 -2.426984 0.000000 0.000000 0.000000 -0.967081 -13.915863 -5.620450 -2.513431 37.587848 5.869267 -0.546143 1.105551 -0.134786 0.000000 0.000000 0.000000 0.780504 0.023690 -1.014611 1.014180 13.505339 -0.080219 1.308821 4.035612 0.701439 0.000000 0.000000 0.000000 
76.862000 -27.898000 1152.531010 3.190684 -0.309412 1.603899 -0.567185 9.440729 -3.069786 -1.524384 -1.728123 0.702837 -1.623027 1.624259 -0.379529 -0.239402 4.990290 0.848122 0.000000 0.000000 0.000000 -1.342730 -1.887226 1.512857 0.498946 -2.177077 1.644090 0.345015 -2.699216 0.071385 0.000000 0.000000 0.000000 -1.778952 -2.640787 0.999083 -0.624684 -2.469830 0.235696 -0.954525 -3.239067 -2.194273 0.000000 0.000000 0.000000 -1.007164 -14.533473 -5.749200 -2.532271 36.961593 5.919195 -0.531245 -0.104525 -0.214227 0.000000 0.000000 0.000000 0.732159 0.184187 -0.970255 0.954441 13.615107 -0.061942 1.254393 4.236380 0.681618 0.000000 0.000000 0.000000 
81.770000 -29.344000 1152.987060 3.358164 -0.293420 1.603555 -0.704898 9.542194 -3.042036 -1.539140 -1.783216 0.716858 -1.624714 1.664445 -0.371337 -0.234979 5.035649 0.831637 0.000000 0.000000 0.000000 -1.370808 -1.771235 1.624158 0.466321 -2.079682 1.472841 0.373924 -2.725795 0.240632 0.000000 0.000000 0.000000 -1.701675 -2.750780 0.835417 -0.581534 -2.568943 0.492509 -0.827609 -2.836417 -1.852391 0.000000 0.000000 0.000000 -0.947001 -14.698124 -5.760373 -2.477721 34.870990 5.826554 -0.465459 -1.398744 -0.282022 0.000000 0.000000 0.000000 0.678325 0.383998 -0.859208 0.886558 13.596992 -0.043406 1.168863 4.534689 0.651145 0.000000 0.000000 0.000000 
87.050000 -31.145000 1153.603030 3.487692 -0.219139 1.587886 -0.835300 9.574939 -2.949592 -1.508751 -1.807194 0.699296 -1.575558 1.698567 -0.364973 -0.231899 5.074817 0.817328 0.000000 0.000000 0.000000 -1.400104 -1.632938 1.657516 0.441666 -1.947620 1.421905 0.389906 -2.743872 0.331516 0.000000 0.000000 0.000000 -1.646127 -2.819768 0.724857 -0.537485 -2.627905 0.673606 -0.693072 -2.427317 -1.473423 0.000000 0.000000 0.000000 -0.854548 -14.688464 -5.632255 -2.394931 31.981434 5.508707 -0.441786 -2.538970 -0.357942 0.000000 0.000000 0.000000 0.634851 0.547078 -0.710437 0.835804 13.548396 -0.027866 1.091800 4.911774 0.627051 0.000000 0.000000 0.000000 
92.710000 -33.319000 1154.468990 3.597402 -0.082930 1.588352 -0.962296 9.570543 -2.840101 -1.438495 -1.798474 0.663558 -1.482534 1.715098 -0.359920 -0.232632 5.093609 0.813842 0.000000 0.000000 0.000000 -1.430446 -1.469511 1.561272 0.434575 -1.768632 1.598456 0.379365 -2.753806 0.253578 0.000000 0.000000 0.000000 -1.638598 -2.830517 0.725882 -0.497214 -2.630520 0.715245 -0.551949 -2.024036 -1.049825 0.000000 0.000000 0.000000 -0.762065 -14.453174 -5.331053 -2.290784 28.076803 4.804234 -0.507956 -3.441951 -0.456536 0.000000 0.000000 0.000000 0.605323 0.657517 -0.565374 0.806242 13.473246 -0.003733 1.030943 5.424523 0.614363 0.000000 0.000000 0.000000 
